<svg width="33" height="34" viewBox="0 0 33 34" fill="none" xmlns="http://www.w3.org/2000/svg">
<path d="M9.52734 15.2458L10.8367 14.1612L11.2017 14.116L11.966 20.8442L11.4194 20.9129L10.7338 14.9475L9.58563 15.8243L9.52734 15.2458Z" fill="#7D8B9F" stroke="#7D8B9F" stroke-width="0.5"/>
<path d="M14.8059 13.5628C16.374 13.3658 17.1161 14.7631 17.3423 16.7534C17.5685 18.7437 17.1606 20.2856 15.5942 20.4845C14.0278 20.6833 13.2841 19.2842 13.0578 17.2957C12.8316 15.3073 13.2395 13.7617 14.8059 13.5628ZM15.5308 19.9368C16.7167 19.7867 16.9841 18.4906 16.7956 16.8221C16.6071 15.1536 16.0535 13.9623 14.8693 14.1105C13.6851 14.2588 13.416 15.5567 13.6062 17.2234C13.7965 18.8901 14.3466 20.0868 15.5308 19.9368Z" fill="#7D8B9F" stroke="#7D8B9F" stroke-width="0.5"/>
<path d="M20.1926 12.8812C21.7607 12.6842 22.5011 14.0815 22.729 16.0718C22.9569 18.0621 22.5473 19.604 20.9792 19.8029C19.4111 20.0017 18.6708 18.6026 18.4446 16.6141C18.2183 14.6256 18.6262 13.0801 20.1926 12.8812ZM20.9175 19.2551C22.1018 19.1051 22.3708 17.809 22.1806 16.1405C21.9904 14.472 21.4402 13.2789 20.256 13.4289C19.0718 13.579 18.8027 14.8751 18.9913 16.5436C19.1798 18.2121 19.7316 19.4052 20.9175 19.2551Z" fill="#7D8B9F" stroke="#7D8B9F" stroke-width="0.5"/>
<path d="M12.6064 23.4072L12.8069 25.1716L12.4812 25.2131L12.207 22.8089L12.435 22.78L14.0031 24.3653L13.8026 22.601L14.1282 22.5594L14.4024 24.9637L14.1744 24.9908L12.6064 23.4072Z" fill="#7D8B9F" stroke="#7D8B9F" stroke-width="0.25"/>
<path d="M14.7148 22.4925L15.0404 22.4509L15.3129 24.8552L14.9873 24.8967L14.7148 22.4925Z" fill="#7D8B9F" stroke="#7D8B9F" stroke-width="0.25"/>
<path d="M17.7377 24.1305C17.6459 24.2825 17.5236 24.4114 17.3794 24.5079C17.2351 24.6044 17.0725 24.6663 16.9031 24.6891C16.5941 24.7292 16.2827 24.6389 16.0365 24.4381C15.7903 24.2372 15.6293 23.942 15.5884 23.6165C15.5475 23.291 15.6301 22.9617 15.8182 22.7002C16.0063 22.4386 16.2847 22.2659 16.5929 22.2198C16.7483 22.198 16.9063 22.2104 17.057 22.2561C17.2077 22.3019 17.3479 22.3799 17.4686 22.4855L17.2767 22.7386C17.1864 22.663 17.0828 22.607 16.9719 22.5738C16.861 22.5406 16.745 22.5309 16.6305 22.5451C16.4201 22.5975 16.2357 22.7308 16.1134 22.9189C15.9911 23.1071 15.9397 23.3365 15.9693 23.5625C15.9988 23.7884 16.1072 23.9946 16.2733 24.1408C16.4393 24.287 16.651 24.3626 16.8671 24.3528C17.0749 24.332 17.2668 24.2262 17.4017 24.0582L17.3315 23.44L16.6802 23.5231L16.6426 23.1977L17.6194 23.073L17.7377 24.1305Z" fill="#7D8B9F" stroke="#7D8B9F" stroke-width="0.25"/>
<path d="M19.7573 23.1435L18.4891 23.3043L18.6177 24.4377L18.292 24.4775L18.0195 22.0751L18.3452 22.0335L18.4531 22.9771L19.7231 22.8163L19.6151 21.8726L19.9407 21.8311L20.2149 24.2353L19.8893 24.2769L19.7573 23.1435Z" fill="#7D8B9F" stroke="#7D8B9F" stroke-width="0.25"/>
<path d="M20.2773 21.7879L21.8403 21.5908L21.878 21.9162L21.2594 21.9957L21.4958 24.0728L21.1702 24.1144L20.9303 22.0355L20.3116 22.1151L20.2773 21.7879Z" fill="#7D8B9F" stroke="#7D8B9F" stroke-width="0.25"/>
<path d="M10.4911 27.8147L10.5271 28.1419L9.77819 28.2359L9.90843 29.3693L9.5828 29.4109L9.30859 27.0067L10.6111 26.8422L10.6488 27.1694L9.67194 27.2923L9.7422 27.9105L10.4911 27.8147Z" fill="#7D8B9F" stroke="#7D8B9F" stroke-width="0.25"/>
<path d="M11.4383 28.0264L11.5669 29.1598L11.2412 29.2014L10.9688 26.7971L11.7657 26.6959C11.9234 26.6648 12.0866 26.695 12.2249 26.7808C12.3015 26.832 12.3663 26.9003 12.4149 26.9809C12.4635 27.0615 12.4946 27.1525 12.506 27.2472C12.5161 27.3423 12.506 27.4385 12.4764 27.5289C12.4467 27.6193 12.3983 27.7015 12.3346 27.7696C12.2663 27.8468 12.1792 27.9025 12.0827 27.9305L13.0304 28.9736L12.6362 29.0242L11.6971 27.9938L11.4383 28.0264ZM11.8565 27.6431C11.9062 27.6426 11.9554 27.6312 12.0008 27.6098C12.0462 27.5883 12.0869 27.5572 12.1204 27.5184C12.1687 27.4527 12.1906 27.3696 12.1813 27.2871C12.172 27.2045 12.1323 27.1292 12.0707 27.0773C12.0295 27.0479 11.9828 27.0279 11.9339 27.0186C11.8849 27.0092 11.8346 27.0108 11.7862 27.0231L11.3338 27.0773L11.404 27.6956L11.8565 27.6431Z" fill="#7D8B9F" stroke="#7D8B9F" stroke-width="0.25"/>
<path d="M14.2328 27.3411L14.2688 27.6683L13.5199 27.7623L13.6124 28.5703L14.6218 28.442L14.6578 28.7692L13.3245 28.9373L13.0469 26.5349L14.3493 26.3704L14.3871 26.6976L13.4102 26.8205L13.4804 27.4387L14.2328 27.3411Z" fill="#7D8B9F" stroke="#7D8B9F" stroke-width="0.25"/>
<path d="M15.9894 27.1187L16.0271 27.4459L15.2782 27.5399L15.369 28.3479L16.3784 28.2196L16.4161 28.5468L15.0811 28.7149L14.8086 26.3106L16.1111 26.1461L16.1471 26.4715L15.1702 26.5962L15.2404 27.2145L15.9894 27.1187Z" fill="#7D8B9F" stroke="#7D8B9F" stroke-width="0.25"/>
<path d="M17.1055 26.0215L18.6667 25.8226L18.7044 26.1498L18.0858 26.2275L18.3222 28.3046L17.9966 28.3462L17.7601 26.2691L17.1415 26.3469L17.1055 26.0215Z" fill="#7D8B9F" stroke="#7D8B9F" stroke-width="0.25"/>
<path d="M19.4774 27.0082L19.606 28.1417L19.2803 28.1832L19.0078 25.779L19.8047 25.6796C19.9623 25.6471 20.1257 25.6767 20.264 25.7628C20.3406 25.8139 20.4054 25.8822 20.454 25.9628C20.5026 26.0434 20.5337 26.1344 20.5451 26.2291C20.5552 26.3242 20.5451 26.4204 20.5155 26.5108C20.4858 26.6012 20.4374 26.6835 20.3737 26.7516C20.3059 26.8293 20.2185 26.8851 20.1218 26.9124L21.0695 27.9573L20.6753 28.0061L19.7362 26.9757L19.4774 27.0082ZM19.9024 26.625C19.9521 26.6251 20.0013 26.6142 20.0467 26.593C20.0922 26.5718 20.1329 26.5409 20.1663 26.5021C20.2142 26.4363 20.2358 26.3533 20.2265 26.2709C20.2173 26.1885 20.1778 26.1132 20.1167 26.061C20.0752 26.032 20.0286 26.0123 19.9797 26.0029C19.9308 25.9936 19.8806 25.9949 19.8322 26.0068L19.3763 26.0646L19.4466 26.6828L19.9024 26.625Z" fill="#7D8B9F" stroke="#7D8B9F" stroke-width="0.25"/>
<path d="M21.0898 25.5171L21.4154 25.4755L21.6879 27.8797L21.3641 27.9195L21.0898 25.5171Z" fill="#7D8B9F" stroke="#7D8B9F" stroke-width="0.25"/>
<path d="M23.466 27.0264L22.5063 27.1493L22.3349 27.7965L21.9922 27.8399L22.6623 25.3091L22.8902 25.2802L24.1087 27.5651L23.7659 27.6067L23.466 27.0264ZM22.5988 26.8059L23.3032 26.7173L22.8491 25.8677L22.5988 26.8059Z" fill="#7D8B9F" stroke="#7D8B9F" stroke-width="0.25"/>
<path d="M24.7106 27.1657L25.72 27.0373L25.7576 27.3645L24.4226 27.5326L24.1484 25.1284L24.474 25.0886L24.7106 27.1657Z" fill="#7D8B9F" stroke="#7D8B9F" stroke-width="0.25"/>
<path d="M24.0903 3.65646C24.5196 3.66867 24.9491 3.64812 25.3756 3.595L26.0131 3.51727L26.3319 3.47931C26.3939 3.47112 26.4562 3.46629 26.5187 3.46484C26.5853 3.4648 26.6517 3.47024 26.7175 3.48111C26.9801 3.52827 27.2208 3.66477 27.403 3.86977C27.5855 4.07491 27.7003 4.33678 27.7303 4.61637L27.8777 5.96127L28.4707 11.3356L29.6703 22.0878L30.2616 27.4638L30.4124 28.807C30.4309 28.9313 30.4338 29.0578 30.421 29.183C30.4079 29.3123 30.3737 29.4383 30.3199 29.5553C30.2097 29.7909 30.029 29.9815 29.8057 30.0977C29.6984 30.1565 29.5826 30.1962 29.463 30.2152C29.3481 30.2332 29.2487 30.2423 29.1408 30.2568L28.5032 30.3363L27.2299 30.4953L17.038 31.7607L11.943 32.3953C10.2446 32.6067 8.54454 32.811 6.84964 33.0478L6.53257 33.093C6.4193 33.1122 6.30453 33.1201 6.18983 33.1165C5.94368 33.1002 5.70953 32.9987 5.52362 32.8278C5.33774 32.6569 5.21046 32.426 5.16154 32.1711C5.14956 32.1042 5.1427 32.0482 5.13583 31.9903L5.11699 31.824L5.07585 31.4878L4.7571 28.8124L4.13501 23.4399L2.90964 12.695L2.59259 10.0087C2.53889 9.56042 2.48177 9.11331 2.42121 8.66739L2.33381 7.99676L2.31153 7.83045C2.30288 7.76276 2.29944 7.69442 2.30125 7.62616C2.30232 7.48794 2.32609 7.35092 2.37151 7.22126C2.46131 6.95802 2.63127 6.73362 2.8548 6.58313C2.96601 6.50619 3.0889 6.44994 3.21812 6.41682C3.33124 6.3915 3.4457 6.37339 3.56088 6.3626L4.83422 6.20532C5.69111 6.08421 6.52743 5.945 7.36889 5.77148C7.41325 5.76231 7.45884 5.7625 7.50312 5.77194C7.5474 5.78138 7.58949 5.79995 7.62694 5.82655C7.66443 5.85318 7.69659 5.88729 7.72153 5.927C7.74651 5.96672 7.76382 6.01123 7.77249 6.05801C7.78116 6.10474 7.78101 6.15286 7.77203 6.19956C7.76309 6.24626 7.74548 6.29066 7.72027 6.33018C7.69506 6.3697 7.66267 6.40362 7.62503 6.42995C7.58738 6.45631 7.54521 6.47457 7.50085 6.48371C7.48435 6.48547 7.4677 6.48547 7.45116 6.48371C6.59427 6.52526 5.73739 6.60301 4.89078 6.69521L3.62086 6.86693C3.51803 6.87959 3.39807 6.89406 3.32952 6.90672C3.2503 6.92391 3.1744 6.95507 3.10501 6.99889C2.96172 7.08818 2.8503 7.22479 2.78796 7.38756C2.75585 7.46853 2.7373 7.55479 2.73312 7.64243C2.73058 7.68698 2.73058 7.73164 2.73312 7.77619L2.75026 7.94434L2.81367 8.61858C2.8548 9.06692 2.90107 9.52243 2.94906 9.96352L3.25068 12.6516L4.46232 23.3983L5.07071 28.7726L5.37063 31.4607L5.40489 31.7969L5.42377 31.965C5.42811 32.0178 5.43498 32.0703 5.44434 32.1223C5.47554 32.3134 5.56594 32.4882 5.70139 32.6194C5.83566 32.7539 6.00764 32.8389 6.19152 32.8616C6.29006 32.8666 6.38879 32.8611 6.4863 32.8454L6.80505 32.8092C8.50513 32.6176 10.2035 32.3898 11.9001 32.1729L16.9935 31.5185L27.1802 30.2079L28.4536 30.0434L29.0893 29.9621L29.403 29.9205C29.4928 29.9067 29.5798 29.8767 29.66 29.8319C29.8231 29.7448 29.9536 29.6021 30.0302 29.427C30.0705 29.3415 30.0961 29.249 30.1056 29.1541C30.1139 29.0539 30.1104 28.9532 30.0953 28.854L29.9394 27.5108L29.3087 22.1402L28.0491 11.3988L27.4253 6.01914L27.271 4.676C27.2527 4.50478 27.1816 4.34462 27.0685 4.22018C26.9555 4.09575 26.8069 4.01391 26.6455 3.98727C26.6058 3.98097 26.5657 3.97734 26.5255 3.97642C26.4827 3.97642 26.4518 3.97642 26.3936 3.98908L26.0748 4.03066L25.439 4.11562C25.0126 4.16947 24.5905 4.25586 24.1759 4.37412C24.1322 4.38717 24.0864 4.39101 24.0412 4.38541C23.996 4.3798 23.9524 4.36484 23.9126 4.34143C23.8729 4.31802 23.838 4.28659 23.8098 4.24892C23.7816 4.21127 23.7607 4.16812 23.7484 4.12194C23.736 4.07577 23.7324 4.02748 23.7377 3.97982C23.743 3.93217 23.7572 3.88609 23.7793 3.84421C23.8015 3.80232 23.8313 3.76547 23.8671 3.73574C23.9027 3.706 23.9436 3.68398 23.9874 3.67092C24.0207 3.66031 24.0555 3.65542 24.0903 3.65646Z" fill="#7D8B9F" stroke="#7D8B9F" stroke-width="0.5"/>
<path d="M10.7689 5.43357C11.0431 5.43357 11.3139 5.40825 11.5846 5.38476C11.8554 5.36124 12.1262 5.33235 12.397 5.29981C12.6677 5.26727 12.9351 5.22748 13.2042 5.18047C13.4732 5.13347 13.7406 5.0883 14.0079 5.02322C14.0747 5.00757 14.1447 5.02046 14.2025 5.05906C14.2603 5.0977 14.3013 5.15891 14.3164 5.22928C14.3242 5.2642 14.3254 5.30042 14.3197 5.3358C14.3141 5.37118 14.3018 5.40502 14.2836 5.43534C14.2654 5.46565 14.2417 5.49182 14.2137 5.51231C14.1858 5.5328 14.1543 5.54719 14.121 5.55468C14.1061 5.56032 14.0906 5.56396 14.0748 5.56554C13.8023 5.56554 13.5315 5.59082 13.259 5.61434C12.9865 5.63783 12.7192 5.66676 12.4484 5.6993C12.1776 5.73184 11.9085 5.77159 11.6412 5.8186C11.3739 5.86561 11.1031 5.91261 10.8374 5.97589C10.7726 5.98648 10.7063 5.97067 10.6521 5.93168C10.5979 5.8927 10.5597 5.83345 10.5453 5.76591C10.531 5.69838 10.5415 5.62758 10.5747 5.56791C10.6079 5.50821 10.6614 5.46408 10.7243 5.44439C10.7387 5.43872 10.7537 5.43507 10.7689 5.43357Z" fill="#7D8B9F" stroke="#7D8B9F" stroke-width="0.5"/>
<path d="M17.4454 4.58953C17.7179 4.58953 17.9887 4.5642 18.2612 4.54072C18.5337 4.51719 18.801 4.4883 19.0718 4.45576C19.3426 4.42322 19.6117 4.38343 19.879 4.33644C20.1463 4.28944 20.4171 4.24425 20.6827 4.17917C20.748 4.16745 20.815 4.18252 20.87 4.22129C20.925 4.26005 20.9638 4.31957 20.9785 4.38761C20.9932 4.45565 20.9827 4.52702 20.949 4.58711C20.9153 4.6472 20.8612 4.6914 20.7976 4.71063C20.78 4.71328 20.762 4.71328 20.7444 4.71063C20.4702 4.71063 20.1995 4.73595 19.9287 4.75944C19.6579 4.78292 19.3871 4.81185 19.1163 4.84439C18.8456 4.87693 18.5782 4.91672 18.3092 4.96369C18.0401 5.0107 17.7727 5.0577 17.5054 5.12098C17.4406 5.13157 17.3743 5.11576 17.3201 5.07678C17.2659 5.03783 17.2277 4.97854 17.2133 4.91101C17.1989 4.84347 17.2094 4.77271 17.2427 4.71301C17.2759 4.65334 17.3294 4.60917 17.3923 4.58953C17.4099 4.58688 17.4278 4.58688 17.4454 4.58953Z" fill="#7D8B9F" stroke="#7D8B9F" stroke-width="0.5"/>
<path d="M3.10987 11.4006C5.18012 11.1764 7.24692 10.9342 9.31548 10.6775L15.5159 9.91649L21.7112 9.11206L24.8063 8.69449L27.8997 8.25521C27.9335 8.25045 27.9678 8.25279 28.0007 8.262C28.0336 8.27125 28.0645 8.28725 28.0915 8.30904C28.1186 8.33088 28.1413 8.35812 28.1584 8.3892C28.1754 8.42028 28.1865 8.45459 28.1911 8.4902C28.1956 8.52581 28.1934 8.56203 28.1846 8.59672C28.1758 8.63145 28.1607 8.66399 28.14 8.69253C28.1193 8.72108 28.0935 8.74503 28.064 8.76302C28.0345 8.78106 28.002 8.79276 27.9683 8.79752L24.8646 9.14279L21.7627 9.50434L15.5622 10.2708L9.35489 11.0861C7.29834 11.3608 5.2264 11.641 3.16471 11.9393C3.13095 11.944 3.09664 11.9417 3.06373 11.9325C3.03081 11.9232 2.99995 11.9073 2.9729 11.8854C2.94584 11.8636 2.92313 11.8364 2.90605 11.8053C2.88897 11.7742 2.87787 11.7399 2.87337 11.7043C2.86887 11.6687 2.87106 11.6325 2.87982 11.5978C2.88858 11.5631 2.90374 11.5305 2.92442 11.502C2.94511 11.4734 2.97093 11.4495 3.00039 11.4315C3.02986 11.4135 3.0624 11.4017 3.09616 11.397L3.10987 11.4006Z" fill="#7D8B9F" stroke="#7D8B9F" stroke-width="0.5"/>
<path d="M6.41408 5.12444C6.37383 4.8251 6.36462 4.52203 6.38669 4.2206C6.40668 4.06154 6.44643 3.90594 6.50495 3.75782C6.56239 3.61151 6.63361 3.47163 6.71745 3.34025C6.89688 3.07025 7.14415 2.85837 7.43144 2.7284C7.71873 2.59844 8.03469 2.55553 8.34382 2.60451C8.64458 2.65849 8.92765 2.7912 9.1672 2.99048C9.40672 3.18976 9.59501 3.44925 9.71485 3.74517C9.82095 4.02565 9.89071 4.31994 9.92221 4.62011L10.0165 5.46069C10.0524 5.73724 10.085 6.01563 10.1142 6.29402C10.1524 6.58208 10.1707 6.87267 10.169 7.16353C10.1603 7.32458 10.1297 7.48348 10.0782 7.63535C10.0235 7.78504 9.94593 7.9243 9.8485 8.04751C9.6614 8.28423 9.4274 8.4749 9.16302 8.60605C8.90136 8.73993 8.61196 8.8021 8.32152 8.78682C8.03235 8.77144 7.75062 8.68475 7.49894 8.53376C7.23475 8.3871 7.02124 8.15618 6.88882 7.87395C6.78591 7.59633 6.73357 7.30071 6.73457 7.00264C6.73472 6.96898 6.74654 6.93656 6.76787 6.9115C6.78917 6.88645 6.81845 6.87048 6.85014 6.86672C6.88188 6.86292 6.9138 6.87152 6.93986 6.89094C6.96595 6.91031 6.98437 6.93913 6.99166 6.9719C7.02289 7.23368 7.08034 7.49119 7.16303 7.74019C7.26591 7.96938 7.43593 8.1576 7.64801 8.27709C7.85806 8.4031 8.09244 8.47724 8.33353 8.49401C8.57685 8.49742 8.81694 8.43518 9.03106 8.31324C9.24744 8.19774 9.43435 8.02913 9.57602 7.82154C9.64187 7.72307 9.69167 7.61371 9.72341 7.49794C9.7515 7.3798 9.7642 7.25816 9.76113 7.1364C9.76113 6.89055 9.70284 6.61036 9.67372 6.33197C9.64459 6.05362 9.61029 5.77523 9.58458 5.49504C9.51432 4.94006 9.48861 4.36882 9.30012 3.9169C9.20811 3.69793 9.06598 3.50649 8.88651 3.35978C8.70705 3.21306 8.49581 3.11566 8.27183 3.07632C8.05134 3.04537 7.82702 3.0797 7.62395 3.17547C7.42089 3.27123 7.24706 3.42467 7.12189 3.61863C6.994 3.81621 6.91238 4.04295 6.88368 4.28025C6.87052 4.54068 6.88372 4.80188 6.92309 5.05936C6.9308 5.13127 6.91115 5.20348 6.86841 5.26012C6.82566 5.31672 6.76335 5.3531 6.69516 5.36127C6.62697 5.36941 6.55852 5.34865 6.50487 5.30356C6.45119 5.25847 6.41669 5.19274 6.40894 5.12083L6.41408 5.12444Z" fill="#7D8B9F" stroke="#7D8B9F" stroke-width="0.5"/>
<path d="M12.9258 4.29994C12.8855 4.00061 12.8764 3.69753 12.8984 3.39609C12.9165 3.23335 12.9558 3.07399 13.0149 2.92247C13.0727 2.77635 13.1439 2.6365 13.2274 2.5049C13.4072 2.23475 13.6547 2.0228 13.9423 1.89283C14.2299 1.76287 14.5462 1.72004 14.8555 1.76916C15.1564 1.82348 15.4395 1.95651 15.6791 2.15611C15.9186 2.3557 16.1068 2.61546 16.2266 2.91163C16.3337 3.19113 16.4035 3.48498 16.4339 3.78475L16.5282 4.62534C16.5642 4.90373 16.5985 5.18208 16.6259 5.46047C16.6641 5.74792 16.6824 6.03793 16.6807 6.32818C16.6719 6.48903 16.6419 6.64786 16.5916 6.8C16.5363 6.94992 16.4588 7.08963 16.3619 7.21396C16.1739 7.44926 15.9401 7.63912 15.6764 7.77074C15.4141 7.90435 15.1242 7.96651 14.8333 7.95151C14.5446 7.93463 14.2636 7.84737 14.0124 7.6966C13.7477 7.55002 13.5336 7.31914 13.4005 7.0368C13.2973 6.75933 13.2455 6.46356 13.248 6.16548C13.2473 6.14768 13.25 6.12991 13.2558 6.11318C13.2616 6.09645 13.2705 6.0811 13.282 6.06802C13.2935 6.05489 13.3072 6.0443 13.3226 6.03686C13.3379 6.02938 13.3545 6.02519 13.3714 6.0245C13.4024 6.02266 13.4329 6.03287 13.4572 6.0532C13.4815 6.0735 13.4979 6.10255 13.5034 6.13474C13.5338 6.39667 13.5912 6.6543 13.6747 6.90303C13.7719 7.13349 13.9381 7.32401 14.1477 7.44534C14.3599 7.5737 14.5976 7.64799 14.8418 7.66226C15.0851 7.66552 15.3252 7.60332 15.5393 7.48149C15.7569 7.37305 15.9471 7.212 16.0946 7.01151C16.1605 6.91285 16.2109 6.80357 16.2437 6.68792C16.272 6.56981 16.2847 6.44813 16.2814 6.32638C16.2814 6.08052 16.2214 5.80033 16.194 5.52194C16.1666 5.24355 16.1306 4.96516 16.1032 4.68677C16.0329 4.13183 16.0089 3.55879 15.8204 3.10867C15.7286 2.88936 15.5866 2.69756 15.4071 2.55051C15.2276 2.40347 15.0163 2.3058 14.7921 2.26628C14.5719 2.23568 14.3479 2.27018 14.1452 2.36593C13.9425 2.46168 13.7689 2.61493 13.6439 2.80859C13.5111 3.0023 13.4242 3.22665 13.3902 3.46298C13.378 3.72282 13.3912 3.98331 13.4297 4.24029C13.4335 4.2759 13.4306 4.31195 13.4212 4.34641C13.4119 4.38083 13.3961 4.41299 13.375 4.44104C13.3538 4.46905 13.3276 4.49242 13.2979 4.50976C13.2682 4.52715 13.2355 4.53812 13.2017 4.54219C13.168 4.54622 13.1338 4.54319 13.1011 4.53329C13.0685 4.52339 13.038 4.50681 13.0114 4.48448C12.9848 4.46214 12.9627 4.43452 12.9462 4.40317C12.9298 4.37182 12.9194 4.33736 12.9155 4.30175L12.9258 4.29994Z" fill="#7D8B9F" stroke="#7D8B9F" stroke-width="0.5"/>
<path d="M19.7618 3.43412C19.7214 3.13479 19.7123 2.83171 19.7344 2.53027C19.7529 2.3676 19.7922 2.2083 19.8509 2.05665C19.909 1.91029 19.9808 1.7704 20.0652 1.63908C20.2446 1.36908 20.4919 1.1572 20.7792 1.02723C21.0664 0.897266 21.3824 0.854362 21.6915 0.90334C21.9923 0.957322 22.2754 1.09003 22.5149 1.28931C22.7544 1.48859 22.9427 1.74808 23.0626 2.044C23.1679 2.32476 23.2376 2.61894 23.2699 2.91893L23.3642 3.75951C23.4002 4.03608 23.4327 4.31447 23.4619 4.59287C23.5003 4.88027 23.5181 5.17033 23.515 5.46054C23.5071 5.62212 23.4771 5.78163 23.4259 5.93416C23.3712 6.08389 23.2936 6.22311 23.1963 6.34632C23.0092 6.58307 22.7752 6.77371 22.5107 6.9049C22.2485 7.0389 21.9586 7.10106 21.6675 7.08567C21.3791 7.0694 21.0981 6.98276 20.8467 6.83261C20.5882 6.68649 20.3787 6.45986 20.2468 6.18362C20.1443 5.90657 20.0925 5.61153 20.0943 5.31411C20.0929 5.27796 20.1051 5.2427 20.1282 5.21599C20.1513 5.18925 20.1834 5.17321 20.2177 5.17133C20.2489 5.17064 20.2793 5.18146 20.3037 5.20191C20.3281 5.22236 20.345 5.25122 20.3514 5.28341C20.3826 5.54515 20.4401 5.80266 20.5228 6.05166C20.6231 6.27763 20.7887 6.46427 20.9958 6.58495C21.2058 6.71097 21.4402 6.7851 21.6812 6.80187C21.9246 6.80529 22.1647 6.74305 22.3788 6.6211C22.5946 6.50549 22.781 6.33688 22.922 6.1294C22.9877 6.03055 23.038 5.92135 23.0711 5.80581C23.0992 5.68766 23.1119 5.56602 23.1088 5.44427C23.1088 5.19661 23.0489 4.91822 23.0214 4.63803C22.994 4.35784 22.958 4.08308 22.9323 3.80289C22.8603 3.24793 22.8364 2.67488 22.6478 2.22477C22.5528 2.00996 22.4091 1.8231 22.2295 1.68062C22.0499 1.53814 21.8399 1.44441 21.6179 1.40769C21.3974 1.37674 21.173 1.41107 20.97 1.50683C20.7669 1.6026 20.5931 1.75604 20.4679 1.95C20.34 2.14757 20.2584 2.37432 20.2297 2.61162C20.2168 2.872 20.2294 3.13309 20.2674 3.39073C20.2711 3.42634 20.2681 3.46238 20.2586 3.49677C20.2492 3.53117 20.2334 3.56326 20.2121 3.59121C20.1908 3.61916 20.1646 3.64242 20.1348 3.65966C20.1051 3.67691 20.0724 3.6878 20.0386 3.69171C20.0048 3.69563 19.9707 3.6925 19.9381 3.68249C19.9055 3.67248 19.875 3.6558 19.8486 3.63339C19.822 3.61098 19.8 3.58328 19.7836 3.55189C19.7673 3.52049 19.757 3.486 19.7533 3.45039L19.7618 3.43412Z" fill="#7D8B9F" stroke="#7D8B9F" stroke-width="0.5"/>
<path d="M9.36152 22.9662C8.95059 23.009 8.53629 22.9347 8.16185 22.7511C7.79141 22.568 7.4725 22.2865 7.2364 21.9341C7.1217 21.7559 7.02842 21.5634 6.95877 21.361C6.89266 21.1574 6.85007 20.9462 6.83195 20.7319C6.80671 20.3023 6.88575 19.873 7.06161 19.4846L7.27239 19.7323C7.10662 19.8025 6.94857 19.8916 6.8011 19.998C6.65755 20.1008 6.52686 20.2223 6.41209 20.3595C6.29762 20.4929 6.19974 20.6411 6.12073 20.8006C5.96363 21.1157 5.88021 21.4659 5.87737 21.822C5.87722 21.9981 5.89794 22.1737 5.93907 22.3444C6.02134 22.6872 6.18262 23.0033 6.40867 23.2645C6.6343 23.5338 6.91829 23.7415 7.2364 23.8701C7.56425 24.0003 7.91804 24.0407 8.26469 23.9876C8.62635 23.9379 8.9659 23.7763 9.24046 23.523C9.51501 23.2698 9.7122 22.9364 9.8071 22.5649L10.0282 22.8017L9.87221 22.8596C9.81738 22.8795 9.76082 22.8975 9.70084 22.9138C9.58899 22.9394 9.4756 22.9569 9.36152 22.9662ZM9.3238 22.6354C9.4223 22.6205 9.51965 22.5981 9.61516 22.5685C9.66312 22.5523 9.7094 22.536 9.75568 22.5161L9.90134 22.4528H9.91676C9.95713 22.4373 10.0016 22.4384 10.0412 22.4558C10.0809 22.4732 10.113 22.5057 10.131 22.5469C10.1409 22.5701 10.1461 22.5954 10.1461 22.621C10.1461 22.6465 10.1409 22.6718 10.131 22.6951C10.0396 22.8832 9.93599 23.0644 9.8208 23.2374C9.70345 23.4126 9.56904 23.5744 9.41977 23.72C9.11625 24.0147 8.74918 24.2269 8.35038 24.3383C7.93719 24.4552 7.50208 24.4551 7.08893 24.338C6.67582 24.2209 6.29927 23.9909 5.99736 23.6712C5.69242 23.3405 5.47661 22.9299 5.37209 22.4819C5.26756 22.0339 5.27811 21.5646 5.40267 21.1224C5.52631 20.6859 5.75823 20.292 6.07449 19.9817C6.3812 19.6773 6.76112 19.4672 7.173 19.3743H7.19871C7.24227 19.3657 7.28728 19.3752 7.32435 19.4008C7.36141 19.4264 7.38766 19.4662 7.39752 19.5117C7.406 19.5508 7.40117 19.5918 7.38378 19.6274C7.29879 19.7942 7.23375 19.9716 7.19016 20.1553C7.14795 20.3373 7.13122 20.5249 7.14043 20.712C7.14914 20.9001 7.18141 21.0861 7.2364 21.2652C7.29564 21.4431 7.37565 21.6125 7.47465 21.7696C7.67656 22.0868 7.95933 22.3375 8.2904 22.4926C8.61618 22.6383 8.97342 22.6877 9.3238 22.6354Z" fill="#7D8B9F" stroke="#7D8B9F" stroke-width="0.5"/>
<path d="M25.617 14.2063C25.591 14.2063 25.5657 14.198 25.5443 14.1826C25.5228 14.1671 25.5064 14.1451 25.497 14.1196L25.3651 13.758L25.0069 13.7074C24.9787 13.7034 24.9526 13.6897 24.9325 13.6684C24.9123 13.6472 24.8993 13.6196 24.8955 13.5899C24.892 13.56 24.898 13.5298 24.9126 13.504C24.9272 13.4781 24.9495 13.4581 24.976 13.4471L25.3188 13.3079L25.3651 12.9283C25.3691 12.8985 25.3824 12.8709 25.4029 12.85C25.4233 12.8291 25.4498 12.8159 25.4782 12.8126C25.5065 12.8086 25.5353 12.8148 25.5599 12.8302C25.5845 12.8456 25.6034 12.8694 25.6136 12.8975L25.7438 13.2591L26.1037 13.3097C26.1321 13.3132 26.1586 13.3267 26.1788 13.348C26.199 13.3693 26.2118 13.3973 26.2151 13.4272C26.2183 13.457 26.2122 13.4871 26.1976 13.5129C26.1831 13.5387 26.1609 13.5588 26.1346 13.57L25.7918 13.7092L25.7438 14.0888C25.7405 14.1186 25.7276 14.1462 25.7074 14.1673C25.6871 14.1883 25.6607 14.2015 25.6324 14.2045L25.617 14.2063ZM25.5124 13.5194C25.5304 13.529 25.5462 13.5426 25.5587 13.5592C25.5668 13.54 25.5791 13.5233 25.5947 13.5104C25.5768 13.5007 25.561 13.4872 25.5484 13.4706C25.5404 13.4897 25.528 13.5065 25.5124 13.5194Z" fill="#7D8B9F" stroke="#7D8B9F" stroke-width="0.5"/>
<path d="M8.89822 21.2924C8.87228 21.2924 8.84692 21.2841 8.82551 21.2687C8.8041 21.2532 8.78764 21.2312 8.77827 21.2057L8.64631 20.8441L8.28642 20.7935C8.25822 20.79 8.23197 20.7764 8.21205 20.7551C8.1921 20.7337 8.17967 20.7058 8.17675 20.676C8.17326 20.6462 8.17925 20.6159 8.19383 20.5901C8.20841 20.5642 8.23074 20.5442 8.25729 20.5332L8.60003 20.394L8.64804 20.0144C8.65203 19.9846 8.66534 19.9571 8.6858 19.9361C8.70629 19.9152 8.7328 19.902 8.76112 19.8987C8.78921 19.8951 8.8176 19.9015 8.84182 19.9169C8.86607 19.9323 8.88472 19.9558 8.89481 19.9837L9.02677 20.3452L9.38666 20.3958C9.41498 20.4002 9.44119 20.4143 9.4613 20.4358C9.48136 20.4573 9.4943 20.4851 9.49806 20.5151C9.50136 20.5449 9.49503 20.5751 9.4801 20.6006C9.46517 20.6262 9.44253 20.6458 9.41579 20.6561L9.07305 20.7953L9.02504 21.1749C9.02178 21.2049 9.00897 21.2328 8.98874 21.2541C8.96852 21.2755 8.94208 21.289 8.91365 21.2924H8.89822ZM8.79197 20.6037C8.81035 20.6126 8.8267 20.6256 8.83998 20.6417C8.84738 20.6221 8.85985 20.6052 8.87597 20.5929C8.85736 20.5843 8.84132 20.5706 8.82969 20.5531C8.82087 20.5732 8.80801 20.5911 8.79197 20.6055V20.6037Z" fill="#7D8B9F" stroke="#7D8B9F" stroke-width="0.5"/>
<path d="M23.8034 12.8485C23.7774 12.8485 23.752 12.8403 23.7306 12.8248C23.7092 12.8093 23.6928 12.7873 23.6834 12.7618L23.512 12.3189L23.0716 12.2538C23.0434 12.2503 23.0171 12.2367 22.9972 12.2154C22.9773 12.194 22.9648 12.1661 22.9619 12.1363C22.9584 12.1065 22.9644 12.0762 22.979 12.0504C22.9936 12.0245 23.0159 12.0045 23.0425 11.9935L23.4623 11.8218L23.5223 11.35C23.5263 11.32 23.5395 11.2922 23.56 11.2709C23.5804 11.2497 23.6069 11.2361 23.6354 11.2325C23.6635 11.2285 23.6921 11.2348 23.7164 11.2503C23.7406 11.2657 23.7593 11.2894 23.7691 11.3174L23.9405 11.7621L24.3878 11.8236C24.4161 11.828 24.4423 11.8421 24.4624 11.8636C24.4825 11.8851 24.4954 11.9129 24.4992 11.9429C24.5023 11.9729 24.4958 12.0032 24.481 12.029C24.4661 12.0548 24.4436 12.0747 24.4169 12.0857L23.997 12.2665L23.937 12.7383C23.9338 12.7682 23.921 12.7962 23.9007 12.8175C23.8805 12.8388 23.8541 12.8523 23.8256 12.8558L23.8034 12.8485ZM23.6012 12.0568H23.6286C23.6512 12.0603 23.6726 12.07 23.6906 12.0849C23.7087 12.0998 23.7227 12.1194 23.7314 12.1417L23.7417 12.1689V12.1399C23.745 12.116 23.7542 12.0934 23.7684 12.0745C23.7825 12.0554 23.801 12.0406 23.8222 12.0315L23.8479 12.0224H23.8205C23.7976 12.0196 23.7759 12.0102 23.7578 11.9952C23.7396 11.9802 23.7258 11.9603 23.7177 11.9375L23.7074 11.9103V11.9393C23.7048 11.9634 23.6958 11.9863 23.6816 12.0055C23.6674 12.0246 23.6484 12.0392 23.6269 12.0477L23.6012 12.0568Z" fill="#7D8B9F" stroke="#7D8B9F" stroke-width="0.5"/>
</svg>
