<svg width="51" height="31" viewBox="0 0 51 31" fill="none" xmlns="http://www.w3.org/2000/svg">
<mask id="mask0_1_597" style="mask-type:luminance" maskUnits="userSpaceOnUse" x="4" y="0" width="43" height="31">
<path d="M46.1262 0.200195H4.97381V30.2002H46.1262V0.200195Z" fill="white"/>
</mask>
<g mask="url(#mask0_1_597)">
<path d="M8.21198 24.7338C7.26642 24.7651 6.32217 24.8616 5.37879 24.9433C5.32507 24.9486 5.27082 24.9422 5.21987 24.9243C5.16892 24.9064 5.1225 24.8776 5.08389 24.8399C5.04528 24.8021 5.01541 24.7564 4.99639 24.7059C4.97737 24.6553 4.96966 24.6012 4.97381 24.5474C5.03551 23.0131 5.07201 20.7769 5.09548 19.2174C5.12589 15.6642 5.12894 12.1105 5.08201 8.55688C5.06071 6.77875 5.0303 5.00367 4.97381 3.22685C4.97205 3.17379 4.98098 3.12092 5.00007 3.07138C5.01916 3.02184 5.04802 2.97665 5.08494 2.93849C5.12185 2.90034 5.16606 2.86999 5.21494 2.84927C5.26382 2.82855 5.31636 2.81787 5.36945 2.81787C5.42254 2.81787 5.47509 2.82855 5.52397 2.84927C5.57284 2.86999 5.61706 2.90034 5.65397 2.93849C5.69088 2.97665 5.71974 3.02184 5.73883 3.07138C5.75792 3.12092 5.76686 3.17379 5.7651 3.22685C5.65603 6.78006 5.63474 10.3333 5.6217 13.8873C5.61909 17.3823 5.64212 21.0516 5.7651 24.5478L5.36141 24.1524C6.3074 24.1959 7.25426 24.2528 8.20068 24.2458C8.26545 24.2445 8.32809 24.269 8.37482 24.3138C8.42156 24.3587 8.44856 24.4203 8.44988 24.485C8.45121 24.5498 8.42675 24.6125 8.38189 24.6592C8.33703 24.7059 8.27544 24.7329 8.21067 24.7343" fill="#00B288"/>
<path d="M31.4906 24.7211C30.3212 24.6802 29.1523 24.6646 27.9834 24.6542C26.8145 24.6437 25.6456 24.6542 24.4767 24.6507C23.3078 24.6646 22.1393 24.6772 20.9704 24.7028L19.2175 24.7511C18.633 24.7763 18.049 24.7945 17.4646 24.8262C17.3597 24.832 17.2568 24.7959 17.1786 24.7258C17.1004 24.6557 17.0532 24.5574 17.0474 24.4526C17.0417 24.3477 17.0778 24.2448 17.1479 24.1666C17.218 24.0883 17.3162 24.0412 17.4211 24.0354C17.4341 24.0347 17.4472 24.0347 17.4602 24.0354C18.0451 24.0602 18.6296 24.0676 19.214 24.0845L20.9674 24.1062C22.1363 24.114 23.3052 24.1097 24.4741 24.1062C25.6426 24.0867 26.8115 24.0815 27.9804 24.0506C29.1493 24.0198 30.3177 23.9893 31.4862 23.9307C31.5911 23.9254 31.6937 23.9621 31.7716 24.0325C31.8495 24.103 31.8962 24.2015 31.9014 24.3063C31.9067 24.4112 31.87 24.5139 31.7996 24.5917C31.7291 24.6696 31.6306 24.7163 31.5258 24.7215C31.5149 24.7215 31.5027 24.7215 31.4919 24.7215" fill="#00B288"/>
<path d="M5.6934 0.528908C9.56339 0.618423 13.6328 0.581487 17.5072 0.509354C21.4475 0.444174 25.3875 0.355094 29.3257 0.199964C29.378 0.198035 29.4301 0.206991 29.4787 0.226267C29.5274 0.245542 29.5715 0.274714 29.6082 0.311934C29.645 0.349154 29.6737 0.393609 29.6923 0.442479C29.711 0.49135 29.7193 0.54357 29.7168 0.595827C29.6759 1.41623 29.6612 2.2362 29.6329 3.05661C29.6307 3.79532 29.5895 4.79476 29.5986 5.51739L29.3227 5.24059L37.9265 5.23277C37.9896 5.23269 38.051 5.25361 38.101 5.29223C38.1509 5.33086 38.1866 5.385 38.2024 5.44613L40.2135 12.719L39.8306 12.4235C40.3221 12.4491 40.8136 12.4609 41.3046 12.4713C42.669 12.4874 44.3694 12.4926 45.7269 12.4235C45.7795 12.4209 45.832 12.4294 45.8811 12.4484C45.9303 12.4674 45.9749 12.4964 46.0121 12.5336C46.0494 12.5709 46.0784 12.6155 46.0974 12.6646C46.1163 12.7138 46.1248 12.7663 46.1223 12.8189C46.0898 14.719 46.0693 16.6191 46.0606 18.5192C46.0706 20.1887 45.9971 22.5943 46.124 24.2442C46.128 24.296 46.1204 24.348 46.1016 24.3964C46.0829 24.4448 46.0535 24.4884 46.0157 24.524C45.9779 24.5596 45.9326 24.5863 45.8832 24.6021C45.8337 24.6179 45.7813 24.6224 45.7299 24.6153C44.8844 24.5138 44.0333 24.4662 43.1818 24.4728C42.3327 24.4662 41.484 24.4728 40.6354 24.5136C40.57 24.5144 40.5067 24.4898 40.4591 24.445C40.4115 24.4001 40.3831 24.3385 40.38 24.2731C40.3769 24.2078 40.3993 24.1437 40.4425 24.0946C40.4857 24.0454 40.5463 24.0149 40.6115 24.0096C42.3177 24.0778 44.0266 24.0161 45.7234 23.8249L45.3323 24.2203C45.4761 22.5908 45.3692 20.1791 45.3944 18.52C45.384 16.62 45.3633 14.7199 45.3323 12.8198L45.7277 13.2152C44.3733 13.1492 42.6699 13.1487 41.3054 13.1674C40.814 13.1774 40.3225 13.1891 39.8315 13.2152C39.7453 13.2197 39.6603 13.194 39.591 13.1425C39.5218 13.091 39.4727 13.017 39.4521 12.9332C39.4643 12.9262 37.6449 5.60039 37.6523 5.58953L37.9282 5.80288L29.3244 5.79506C29.288 5.79518 29.252 5.78813 29.2184 5.77433C29.1848 5.76052 29.1542 5.74023 29.1284 5.7146C29.1026 5.68898 29.0821 5.65853 29.0681 5.62499C29.0541 5.59145 29.0468 5.55548 29.0467 5.51913C29.0415 4.79693 29.0302 3.78707 29.0124 3.05704C28.9841 2.23664 28.9689 1.41667 28.9281 0.596262L29.3292 0.99169C27.3593 0.968515 25.3901 0.961273 23.4216 0.969963C19.5395 0.975178 15.5005 1.02211 11.6096 1.10424C9.64117 1.15421 7.67315 1.21591 5.70557 1.3215C5.65352 1.3223 5.60183 1.31284 5.55345 1.29367C5.50506 1.27449 5.46092 1.24597 5.42356 1.20973C5.3481 1.13655 5.3048 1.03639 5.30319 0.93129C5.30157 0.826185 5.34178 0.724744 5.41496 0.649283C5.48814 0.573822 5.5883 0.530522 5.6934 0.528908Z" fill="#00B288"/>
<path d="M16.5855 22.9304C16.9907 23.5918 17.2249 24.3438 17.2668 25.1184C17.3087 25.8929 17.1571 26.6658 16.8256 27.3671C16.4942 28.0684 15.9933 28.6762 15.3682 29.1355C14.743 29.5948 14.0134 29.8913 13.2451 29.9981C12.4767 30.1049 11.6939 30.0186 10.9672 29.7472C10.2406 29.4758 9.5929 29.0277 9.08273 28.4433C8.57256 27.859 8.21592 27.1568 8.04501 26.4001C7.8741 25.6435 7.8943 24.8562 8.10378 24.1093C8.33172 23.2199 8.81907 22.4184 9.50382 21.8067C10.1886 21.1951 11.0398 20.801 11.9492 20.6745C12.8586 20.548 13.785 20.6949 14.6107 21.0964C15.4364 21.498 16.1239 22.1361 16.5859 22.9295M16.051 23.2402C15.7093 22.6493 15.2287 22.1506 14.6509 21.7871C14.0731 21.4236 13.4155 21.2064 12.7349 21.1542C12.0543 21.1019 11.3712 21.2162 10.7448 21.4873C10.1183 21.7583 9.56722 22.1778 9.13928 22.7096C7.24122 25.004 8.58351 28.6119 11.4423 29.242C14.8721 30.0581 17.7818 26.3554 16.051 23.2402Z" fill="#00B288"/>
<path d="M14.5467 24.1106C14.7583 24.4362 14.8847 24.8099 14.9142 25.1971C14.9437 25.5844 14.8753 25.9729 14.7154 26.3268C14.5555 26.6807 14.3091 26.9888 13.999 27.2226C13.6889 27.4564 13.325 27.6085 12.9407 27.6649C12.5565 27.7214 12.1642 27.6802 11.8 27.5454C11.4358 27.4105 11.1113 27.1862 10.8564 26.8932C10.6015 26.6001 10.4244 26.2477 10.3414 25.8683C10.2584 25.4889 10.272 25.0947 10.3812 24.722C10.4878 24.2822 10.7234 23.8844 11.0578 23.5795C11.3921 23.2746 11.8099 23.0766 12.2576 23.0109C12.7053 22.9452 13.1625 23.0148 13.5703 23.2107C13.9782 23.4067 14.3182 23.72 14.5467 24.1106ZM14.0117 24.4195C13.8638 24.164 13.6567 23.9477 13.4078 23.7887C13.159 23.6297 12.8756 23.5327 12.5816 23.5059C12.2875 23.479 11.9913 23.5231 11.7177 23.6343C11.4442 23.7456 11.2013 23.9208 11.0095 24.1453C10.1252 25.0966 10.8205 26.7852 12.0524 26.9677C13.4377 27.2718 14.7127 25.6901 14.0109 24.42" fill="#00B288"/>
<path d="M38.2793 24.1101C38.4909 24.4358 38.6172 24.8094 38.6466 25.1966C38.676 25.5839 38.6076 25.9723 38.4476 26.3261C38.2877 26.68 38.0414 26.988 37.7313 27.2218C37.4212 27.4556 37.0573 27.6077 36.6731 27.664C36.2889 27.7204 35.8966 27.6793 35.5324 27.5445C35.1683 27.4097 34.8438 27.1854 34.5889 26.8925C34.3341 26.5995 34.1569 26.2471 34.0739 25.8677C33.9908 25.4884 34.0044 25.0942 34.1134 24.7215C34.22 24.2817 34.4555 23.8837 34.7899 23.5787C35.1243 23.2737 35.5423 23.0756 35.99 23.0099C36.4378 22.9442 36.895 23.0138 37.303 23.2099C37.7109 23.4059 38.0509 23.7194 38.2793 24.1101ZM37.7444 24.4191C37.5964 24.1636 37.3893 23.9472 37.1405 23.7883C36.8916 23.6293 36.6083 23.5323 36.3142 23.5054C36.0202 23.4786 35.7239 23.5226 35.4504 23.6339C35.1769 23.7452 34.934 23.9204 34.7422 24.1449C33.8579 25.0961 34.5532 26.7847 35.7851 26.9672C37.1704 27.2714 38.4453 25.6897 37.7435 24.4195" fill="#00B288"/>
<path d="M40.4646 23.057C40.8666 23.727 41.0957 24.4865 41.1316 25.267C41.1674 26.0476 41.0088 26.8248 40.6699 27.5289C40.331 28.233 39.8226 28.8419 39.1902 29.3008C38.5578 29.7598 37.8213 30.0545 37.0468 30.1584C36.2724 30.2623 35.4843 30.1721 34.7533 29.8961C34.0223 29.62 33.3713 29.1667 32.8588 28.5768C32.3464 27.987 31.9885 27.279 31.8173 26.5166C31.6461 25.7542 31.6671 24.9612 31.8782 24.2089C32.1278 23.3223 32.6315 22.5281 33.3271 21.9242C34.0227 21.3204 34.8799 20.9334 35.7928 20.8109C36.7057 20.6885 37.6346 20.8359 38.4647 21.235C39.2949 21.6341 39.9901 22.2675 40.4646 23.057ZM39.9297 23.3659C39.6014 22.7704 39.1302 22.2659 38.5584 21.8979C37.9866 21.5299 37.3323 21.3099 36.6543 21.2577C35.9763 21.2055 35.296 21.3228 34.6746 21.599C34.0532 21.8752 33.5103 22.3016 33.0948 22.8398C32.6792 23.3781 32.4041 24.0112 32.2942 24.6823C32.1842 25.3533 32.243 26.0412 32.465 26.6839C32.6871 27.3266 33.0656 27.9039 33.5663 28.3639C34.0671 28.824 34.6744 29.1522 35.3336 29.3191C36.108 29.5141 36.9226 29.4788 37.6773 29.2176C38.4319 28.9563 39.0939 28.4804 39.582 27.8482C40.07 27.2161 40.3629 26.4552 40.4247 25.659C40.4864 24.8627 40.3144 24.0658 39.9297 23.3659Z" fill="#00B288"/>
<path d="M29.599 5.51806C29.576 9.47235 29.6094 14.5104 29.6564 18.4816C29.668 19.922 29.6884 21.3623 29.7176 22.8026C29.7176 22.9076 29.676 23.0082 29.6018 23.0824C29.5276 23.1566 29.4269 23.1983 29.322 23.1983C29.2171 23.1983 29.1164 23.1566 29.0422 23.0824C28.968 23.0082 28.9264 22.9076 28.9264 22.8026C29.0002 18.8153 29.0402 13.8512 29.0493 9.83953C29.0563 8.76492 29.0537 6.59311 29.0454 5.5185C29.0454 5.44509 29.0746 5.37468 29.1265 5.32277C29.1784 5.27086 29.2488 5.2417 29.3222 5.2417C29.3956 5.2417 29.466 5.27086 29.5179 5.32277C29.5699 5.37468 29.599 5.44509 29.599 5.5185" fill="#00B288"/>
<path d="M33.2365 8.72884C33.28 10.069 33.2822 11.3795 33.2413 12.7435L32.9571 12.4593C34.3994 12.5061 35.8432 12.4691 37.2812 12.3485L36.8949 12.8374C36.6874 11.3783 36.3856 9.93424 35.9915 8.51418L36.2566 8.72363C35.5031 8.73189 33.9874 8.73362 33.2352 8.73102M32.676 8.17177C33.5755 8.17177 35.3701 8.17177 36.2679 8.17915C36.3279 8.17948 36.3859 8.2005 36.4322 8.23865C36.4785 8.27681 36.5103 8.32977 36.5221 8.3886C36.8105 9.83369 37.1921 11.2586 37.6645 12.6544C37.6855 12.7129 37.6914 12.7757 37.6814 12.837C37.6714 12.8983 37.646 12.9561 37.6075 13.0049C37.569 13.0536 37.5187 13.0917 37.4614 13.1157C37.4041 13.1396 37.3416 13.1485 37.2799 13.1416C35.8419 13.0211 34.3981 12.9841 32.9558 13.0308C32.9205 13.0328 32.8852 13.0278 32.8518 13.0161C32.8184 13.0044 32.7877 12.9863 32.7613 12.9627C32.735 12.9391 32.7135 12.9106 32.6982 12.8787C32.6829 12.8469 32.674 12.8123 32.6721 12.777C32.6286 11.2691 32.6321 9.70568 32.676 8.1709" fill="#00B288"/>
<path d="M13.7749 11.7858V12.2777H12.5839V13.9859H12.0659V10.3618H14.1373V10.8537H12.5839V11.7858H13.7749Z" fill="#00B288"/>
<path d="M15.4309 12.2778V13.9859H14.9134V10.3619H16.184C16.4368 10.3443 16.6873 10.4197 16.8884 10.5739C17.0001 10.6635 17.0903 10.777 17.1523 10.9061C17.2142 11.0352 17.2464 11.1766 17.2464 11.3198C17.2464 11.463 17.2142 11.6044 17.1523 11.7335C17.0903 11.8626 17.0001 11.9761 16.8884 12.0657C16.7669 12.167 16.6201 12.2333 16.4638 12.2573L17.7614 13.9859H17.1348L15.8455 12.2769L15.4309 12.2778ZM16.1562 11.7859C16.234 11.7948 16.3128 11.7874 16.3876 11.7642C16.4624 11.741 16.5316 11.7025 16.5907 11.6512C16.677 11.5624 16.7252 11.4436 16.7252 11.3198C16.7252 11.1961 16.677 11.0772 16.5907 10.9885C16.5316 10.9371 16.4624 10.8986 16.3876 10.8755C16.3128 10.8523 16.234 10.8449 16.1562 10.8538H15.4309V11.7859H16.1562Z" fill="#00B288"/>
<path d="M20.1426 11.7858V12.2777H18.952V13.4944H20.5572V13.9859H18.434V10.3618H20.5055V10.8537H18.952V11.7858H20.1426Z" fill="#00B288"/>
<path d="M23.1457 11.7858V12.2777H21.9546V13.4944H23.5598V13.9859H21.4371V10.3618H23.5068V10.8537H21.9546V11.7858H23.1457Z" fill="#00B288"/>
<path d="M20.8566 18.3566C20.2452 18.3568 19.6413 18.2227 19.0874 17.9638C18.5336 17.7049 18.0434 17.3275 17.6514 16.8583C16.5848 17.5899 15.3063 17.9483 14.0148 17.8777C13.2224 17.8611 12.4486 17.6344 11.7726 17.2208C11.0965 16.8071 10.5424 16.2214 10.167 15.5234C9.59119 15.5351 9.02241 15.3957 8.5173 15.1191C8.01219 14.8425 7.58839 14.4384 7.28815 13.9469C7.03412 13.5123 6.89729 13.0191 6.89104 12.5157C6.88479 12.0123 7.00935 11.5159 7.25252 11.0751C7.46838 10.6673 7.78923 10.3247 8.1819 10.0825C8.57457 9.84033 9.0248 9.70744 9.48604 9.69759C9.56254 9.14054 9.85328 8.6353 10.2965 8.28925C10.6628 8.02812 11.0936 7.87233 11.5422 7.83877C11.9908 7.80522 12.44 7.89519 12.8411 8.09892C13.1453 7.24549 14.3907 5.53776 17.2238 5.40479C17.9535 5.36872 18.6807 5.51446 19.3401 5.82892C19.9995 6.14338 20.5705 6.6167 21.0017 7.20638C21.5238 7.03658 22.0746 6.97264 22.6217 7.0183C23.1689 7.06397 23.7014 7.21832 24.1882 7.47232C25.6573 8.19669 25.7525 9.36734 25.7164 9.8701C26.429 9.98025 27.0768 10.3472 27.5376 10.9017C27.9985 11.4563 28.2406 12.1603 28.2185 12.881C28.2349 13.2632 28.1728 13.6447 28.0361 14.002C27.8994 14.3593 27.691 14.6848 27.4237 14.9585C26.7585 15.5436 25.9105 15.8792 25.0251 15.9076C24.6432 16.6407 24.0686 17.2558 23.3632 17.6868C22.6579 18.1178 21.8483 18.3483 21.0217 18.3536C20.9674 18.3536 20.9118 18.3566 20.8574 18.3566M17.6853 16.3112H17.7036C17.7357 16.3138 17.7668 16.3232 17.795 16.3388C17.8232 16.3544 17.8477 16.3758 17.867 16.4016C18.2284 16.8876 18.7028 17.2781 19.2492 17.5394C19.7956 17.8007 20.3974 17.9249 21.0026 17.9012C21.7668 17.8956 22.5144 17.6775 23.1618 17.2713C23.8091 16.8651 24.3308 16.2869 24.6683 15.6012C24.6843 15.5583 24.7135 15.5215 24.7517 15.4961C24.7898 15.4708 24.835 15.4581 24.8808 15.46C25.6963 15.4504 26.4832 15.1587 27.1078 14.6344C27.3314 14.4019 27.5052 14.1262 27.6185 13.8242C27.7318 13.5221 27.7821 13.2002 27.7666 12.878C27.7666 10.5276 25.5387 10.2881 25.444 10.279C25.4115 10.2759 25.38 10.2658 25.3518 10.2495C25.3236 10.2331 25.2992 10.2108 25.2804 10.1842C25.2616 10.1575 25.2487 10.1271 25.2428 10.095C25.2368 10.0629 25.2378 10.0299 25.2458 9.99828C25.2593 9.9444 25.5539 8.64687 23.9887 7.87514C23.5361 7.63137 23.0362 7.48814 22.5232 7.45522C22.0102 7.4223 21.4961 7.50046 21.016 7.68438C20.967 7.70766 20.9111 7.71249 20.8588 7.69796C20.8064 7.68344 20.7611 7.65054 20.731 7.60529C20.3517 7.0366 19.8311 6.57618 19.2204 6.26913C18.6096 5.96208 17.9296 5.81892 17.2469 5.85367C14.3324 5.99185 13.2491 7.93554 13.2174 8.44525C13.2147 8.48442 13.2019 8.5222 13.1801 8.55487C13.1583 8.58754 13.1284 8.61396 13.0933 8.63151C13.0582 8.64907 13.0191 8.65716 12.9799 8.65497C12.9407 8.65279 12.9027 8.64041 12.8698 8.61906C12.5265 8.39762 12.1257 8.2821 11.7172 8.28689C11.3088 8.29168 10.9108 8.41657 10.5728 8.64601C10.3762 8.80054 10.2159 8.99638 10.1032 9.21969C9.9906 9.443 9.92839 9.68832 9.92101 9.93832C9.92018 9.97019 9.9126 10.0015 9.89877 10.0302C9.88495 10.059 9.86519 10.0844 9.84079 10.105C9.8164 10.1255 9.78794 10.1406 9.75727 10.1494C9.72661 10.1581 9.69444 10.1602 9.6629 10.1556C9.25117 10.1286 8.84057 10.223 8.4819 10.4269C8.12323 10.6309 7.83223 10.9356 7.64491 11.3032C7.44163 11.6752 7.33833 12.0935 7.34511 12.5174C7.35189 12.9413 7.46851 13.3561 7.68358 13.7214C7.97168 14.2255 8.69649 15.0719 10.3091 15.0719C10.352 15.072 10.3941 15.0843 10.4303 15.1074C10.4666 15.1305 10.4955 15.1634 10.5137 15.2023C10.8435 15.855 11.3439 16.4062 11.9618 16.7973C12.5797 17.1884 13.292 17.4049 14.023 17.4237C16.3791 17.4532 17.5206 16.3834 17.5319 16.3725C17.5742 16.3318 17.6306 16.3091 17.6892 16.3091" fill="#00B288"/>
</g>
</svg>
