<svg width="15" height="14" viewBox="0 0 15 14" fill="none" xmlns="http://www.w3.org/2000/svg">
<path fill-rule="evenodd" clip-rule="evenodd" d="M1.37403 6.38856C1.17326 6.38856 0.980704 6.46832 0.838733 6.61029C0.696763 6.75226 0.617004 6.94481 0.617004 7.14559C0.617004 7.34637 0.696763 7.53892 0.838733 7.68089C0.980704 7.82286 1.17326 7.90262 1.37403 7.90262H6.67324L6.68839 13.2018C6.68938 13.3012 6.70994 13.3995 6.74891 13.491C6.78787 13.5824 6.84447 13.6653 6.91547 13.7349C6.98647 13.8045 7.07048 13.8594 7.16271 13.8966C7.25493 13.9337 7.35357 13.9523 7.45299 13.9513C7.5524 13.9503 7.65065 13.9297 7.74211 13.8908C7.83358 13.8518 7.91648 13.7952 7.98607 13.7242C8.05566 13.6532 8.11059 13.5692 8.14772 13.477C8.18484 13.3847 8.20344 13.2861 8.20245 13.1867V7.88748L13.5017 7.87234C13.6011 7.87134 13.6993 7.85078 13.7908 7.81182C13.8822 7.77285 13.9651 7.71626 14.0347 7.64526C14.1043 7.57426 14.1593 7.49024 14.1964 7.39802C14.2335 7.30579 14.2521 7.20715 14.2511 7.10774C14.2501 7.00832 14.2296 6.91008 14.1906 6.81861C14.1516 6.72714 14.095 6.64425 14.024 6.57465C13.953 6.50506 13.869 6.45013 13.7768 6.41301C13.6846 6.37588 13.5859 6.35728 13.4865 6.35828H8.1873L8.17216 1.05907C8.17016 0.858291 8.08847 0.666535 7.94508 0.525984C7.80169 0.385433 7.60834 0.3076 7.40756 0.309608C7.20679 0.311616 7.01503 0.3933 6.87448 0.53669C6.73393 0.680081 6.6561 0.873432 6.6581 1.07421V6.37342L1.35889 6.38856H1.37403Z" fill="#4E504F"/>
</svg>
