<svg width="18" height="12" viewBox="0 0 18 12" fill="none" xmlns="http://www.w3.org/2000/svg">
<path d="M2.38747 0.274902C2.29166 0.288957 2.20434 0.337719 2.14212 0.411924C2.0799 0.486129 2.04711 0.580605 2.04997 0.677402V2.2899C2.04814 2.36002 2.06443 2.42942 2.09728 2.49139C2.13013 2.55336 2.17841 2.60581 2.23747 2.64365C2.29503 2.67956 2.3615 2.6986 2.42934 2.6986C2.49718 2.6986 2.56366 2.67956 2.62122 2.64365C2.68009 2.60592 2.72826 2.55367 2.7611 2.49194C2.79394 2.4302 2.81034 2.36106 2.80872 2.29115V1.07865H11.9662V8.86365H7.35247C7.11622 7.98865 6.35372 7.34365 5.45247 7.34365C4.54997 7.34365 3.78372 7.98865 3.54622 8.86365H2.80872V7.0424C2.81104 6.93513 2.7716 6.83115 2.69872 6.7524C2.66358 6.71476 2.62097 6.68486 2.57362 6.66463C2.52627 6.6444 2.47521 6.63427 2.42372 6.6349C2.37314 6.63602 2.32332 6.64746 2.27732 6.66852C2.23132 6.68959 2.19011 6.71983 2.15622 6.7574C2.08601 6.83553 2.04804 6.93738 2.04997 7.0424V9.2649C2.04997 9.4874 2.21997 9.66615 2.42997 9.66615H3.47997C3.59247 10.7087 4.43747 11.5249 5.45372 11.5249C6.46997 11.5249 7.30872 10.7087 7.41872 9.66615H12.9112C13.0225 10.7087 13.8687 11.5249 14.8837 11.5249C15.8987 11.5249 16.7387 10.7087 16.8487 9.66615H17.3712C17.4746 9.66321 17.5725 9.61948 17.6437 9.54453C17.7149 9.46959 17.7536 9.3695 17.7512 9.26615V5.56615C17.7512 4.81115 17.4837 4.0224 17.0212 3.39365C16.5575 2.76615 15.8675 2.2899 15.0437 2.2899H12.725V0.677402C12.728 0.573835 12.6898 0.473294 12.6188 0.397837C12.5478 0.322379 12.4498 0.278168 12.3462 0.274902H2.38747ZM12.7262 3.09365H13.9675V5.6999C13.9675 5.92115 14.1375 6.0999 14.3475 6.0999H16.99V8.8624H16.7825C16.545 7.9874 15.7837 7.34365 14.8825 7.34365C13.98 7.34365 13.2137 7.98865 12.9762 8.86365H12.7262V3.09365ZM14.7275 3.09365H15.0425C15.5925 3.09365 16.0637 3.40865 16.42 3.89115C16.7187 4.29615 16.9162 4.81615 16.9725 5.2974H14.7275V3.09365ZM0.61247 3.47115C0.544672 3.47531 0.479227 3.49756 0.422948 3.53559C0.366669 3.57362 0.321613 3.62605 0.29247 3.6874C0.261644 3.75064 0.247099 3.82058 0.250155 3.89087C0.253211 3.96116 0.273771 4.02957 0.30997 4.0899C0.344259 4.14836 0.393748 4.19643 0.453175 4.229C0.512603 4.26158 0.579747 4.27744 0.64747 4.2749H3.49247C3.62997 4.27615 3.75747 4.1999 3.82622 4.0749C3.86025 4.01283 3.87808 3.94319 3.87808 3.8724C3.87808 3.80162 3.86025 3.73197 3.82622 3.6699C3.7941 3.60932 3.74603 3.55866 3.6872 3.52341C3.62838 3.48816 3.56104 3.46966 3.49247 3.4699L0.61247 3.47115ZM2.03247 5.05865C1.9645 5.06338 1.89904 5.08629 1.84296 5.125C1.78689 5.1637 1.74225 5.21677 1.71372 5.27865C1.68327 5.3421 1.66914 5.41215 1.67264 5.48244C1.67613 5.55273 1.69713 5.62104 1.73372 5.68115C1.76869 5.7393 1.81879 5.78686 1.87866 5.81878C1.93854 5.8507 2.00595 5.86578 2.07372 5.8624H3.49247C3.62997 5.8649 3.75747 5.7874 3.82622 5.6624C3.86003 5.60049 3.87774 5.53107 3.87774 5.46053C3.87774 5.38998 3.86003 5.32057 3.82622 5.25865C3.7941 5.19807 3.74603 5.14741 3.6872 5.11216C3.62838 5.07691 3.56104 5.05841 3.49247 5.05865H2.03247ZM5.45247 8.1474C6.13122 8.1474 6.66997 8.7199 6.66997 9.4349C6.66997 10.1499 6.13247 10.7224 5.45247 10.7224C4.77247 10.7224 4.22872 10.1499 4.22872 9.4349C4.22872 8.7199 4.77247 8.1474 5.45247 8.1474ZM14.8825 8.1474C15.5612 8.1474 16.0987 8.7199 16.0987 9.4349C16.0987 10.1499 15.5612 10.7224 14.8825 10.7224C14.2025 10.7224 13.6575 10.1499 13.6575 9.4349C13.6575 8.7199 14.2025 8.1474 14.8825 8.1474ZM5.45247 8.8699C5.30669 8.87415 5.16854 8.936 5.06827 9.0419C4.96799 9.14779 4.91377 9.28911 4.91747 9.4349C4.91747 9.7449 5.15747 9.9999 5.45247 9.9999C5.59803 9.99533 5.73586 9.93334 5.83587 9.82748C5.93587 9.72162 5.98992 9.58048 5.98622 9.4349C5.98992 9.28932 5.93587 9.14819 5.83587 9.04233C5.73586 8.93647 5.59803 8.87448 5.45247 8.8699ZM14.8825 8.8699C14.7367 8.87415 14.5985 8.936 14.4983 9.0419C14.398 9.14779 14.3438 9.28911 14.3475 9.4349C14.3475 9.7449 14.5875 9.9999 14.8825 9.9999C15.1762 9.9999 15.41 9.7449 15.41 9.4349C15.41 9.1224 15.1762 8.8699 14.8825 8.8699Z" fill="black" stroke="black" stroke-width="0.1875"/>
</svg>
