<svg width="14" height="14" viewBox="0 0 14 14" fill="none" xmlns="http://www.w3.org/2000/svg">
<path fill-rule="evenodd" clip-rule="evenodd" d="M1.17499 6.447C0.986027 6.447 0.8048 6.52206 0.67118 6.65568C0.537561 6.7893 0.462494 6.97053 0.462494 7.1595C0.462494 7.34846 0.537561 7.52969 0.67118 7.66331C0.8048 7.79693 0.986027 7.872 1.17499 7.872H6.16249L6.17674 12.8595C6.17768 12.9531 6.19704 13.0455 6.23371 13.1316C6.27038 13.2177 6.32364 13.2957 6.39047 13.3612C6.45729 13.4267 6.53636 13.4784 6.62316 13.5134C6.70997 13.5483 6.8028 13.5658 6.89637 13.5649C6.98994 13.5639 7.0824 13.5446 7.16849 13.5079C7.25457 13.4712 7.3326 13.418 7.3981 13.3511C7.4636 13.2843 7.51529 13.2053 7.55023 13.1184C7.58518 13.0316 7.60268 12.9388 7.60174 12.8452V7.85775L12.5892 7.8435C12.6828 7.84256 12.7753 7.8232 12.8614 7.78653C12.9474 7.74986 13.0255 7.69659 13.091 7.62977C13.1565 7.56295 13.2082 7.48388 13.2431 7.39708C13.2781 7.31027 13.2956 7.21744 13.2946 7.12387C13.2937 7.0303 13.2743 6.93784 13.2377 6.85175C13.201 6.76567 13.1477 6.68764 13.0809 6.62214C13.0141 6.55664 12.935 6.50495 12.8482 6.47001C12.7614 6.43506 12.6686 6.41756 12.575 6.4185H7.58749L7.57324 1.431C7.57135 1.24203 7.49447 1.06155 7.35952 0.92927C7.22456 0.796986 7.04259 0.723732 6.85362 0.725622C6.66465 0.727511 6.48418 0.80439 6.35189 0.939346C6.21961 1.0743 6.14635 1.25628 6.14824 1.44525V6.43275L1.16074 6.447H1.17499Z" fill="#4E504F"/>
</svg>
