<svg width="21" height="21" viewBox="0 0 21 21" fill="none" xmlns="http://www.w3.org/2000/svg">
<path d="M10.7321 5.56469C7.87497 5.56469 5.51472 7.92494 5.51472 10.6579C5.51472 13.3908 7.75074 15.751 10.6079 15.751C13.465 15.751 15.7011 13.515 15.7011 10.6579C15.8253 7.92494 13.465 5.56469 10.7321 5.56469ZM10.7321 14.0119C8.86876 14.0119 7.37807 12.5212 7.37807 10.6579C7.37807 8.79451 8.86876 7.30382 10.7321 7.30382C12.5955 7.30382 14.0861 8.79451 14.0861 10.6579C13.9619 12.5212 12.4712 14.0119 10.7321 14.0119ZM17.1917 5.44047C17.1917 6.06159 16.6948 6.6827 15.9495 6.6827C15.3284 6.6827 14.7073 6.18581 14.7073 5.44047C14.7073 4.69513 15.2042 4.19823 15.9495 4.19823C16.6948 4.19823 17.1917 4.69513 17.1917 5.44047ZM20.5458 6.55848C20.5458 4.94357 20.0489 3.45289 18.9309 2.33488C17.8129 1.21687 16.3222 0.719971 14.7073 0.719971C13.0924 0.719971 8.24764 0.719971 6.50851 0.844194C5.01782 0.719971 3.52714 1.34109 2.40913 2.4591C1.29112 3.57711 0.669998 5.0678 0.794221 6.55848C0.669998 8.29761 0.669998 13.1423 0.794221 14.8815C0.794221 16.4964 1.29112 17.9871 2.40913 19.1051C3.52714 20.2231 5.01782 20.72 6.63273 20.72C8.24764 20.8442 13.2166 20.8442 14.8315 20.72C16.4464 20.72 17.9371 20.2231 19.0551 19.1051C20.1731 17.9871 20.67 16.4964 20.67 14.8815C20.67 13.1423 20.67 8.29761 20.5458 6.55848ZM18.434 16.6206C18.0613 17.4902 17.4402 18.2355 16.5706 18.4839C15.2042 18.9808 12.0986 18.8566 10.7321 18.8566C9.36565 18.8566 6.13584 18.9808 4.8936 18.4839C4.02403 18.1113 3.27869 17.4902 3.03025 16.6206C2.40913 15.2541 2.53335 12.1485 2.53335 10.6579C2.53335 9.16718 2.40913 6.18581 2.90602 4.81935C3.27869 3.94978 3.89981 3.20444 4.76938 2.956C6.13584 2.4591 9.24143 2.58332 10.6079 2.58332C11.9743 2.58332 15.2042 2.4591 16.4464 2.956C17.4402 3.20444 18.0613 3.94978 18.434 4.81935C18.9309 6.18581 18.8066 9.2914 18.8066 10.6579C18.8066 12.0243 18.9309 15.2541 18.434 16.6206Z" fill="#0BA97D"/>
</svg>
