<svg width="21" height="21" viewBox="0 0 21 21" fill="none" xmlns="http://www.w3.org/2000/svg">
<path d="M10.7321 5.56445C7.87497 5.56445 5.51472 7.9247 5.51472 10.6576C5.51472 13.3905 7.75074 15.7508 10.6079 15.7508C13.465 15.7508 15.7011 13.5148 15.7011 10.6576C15.8253 7.9247 13.465 5.56445 10.7321 5.56445ZM10.7321 14.0117C8.86876 14.0117 7.37807 12.521 7.37807 10.6576C7.37807 8.79426 8.86876 7.30358 10.7321 7.30358C12.5955 7.30358 14.0861 8.79426 14.0861 10.6576C13.9619 12.521 12.4712 14.0117 10.7321 14.0117ZM17.1917 5.44022C17.1917 6.06134 16.6948 6.68246 15.9495 6.68246C15.3284 6.68246 14.7073 6.18557 14.7073 5.44022C14.7073 4.69488 15.2042 4.19799 15.9495 4.19799C16.6948 4.19799 17.1917 4.69488 17.1917 5.44022ZM20.5458 6.55824C20.5458 4.94333 20.0489 3.45265 18.9309 2.33463C17.8129 1.21662 16.3222 0.719727 14.7073 0.719727C13.0924 0.719727 8.24764 0.719727 6.50851 0.84395C5.01782 0.719727 3.52714 1.34084 2.40913 2.45886C1.29112 3.57687 0.669998 5.06755 0.794221 6.55824C0.669998 8.29737 0.669998 13.1421 0.794221 14.8812C0.794221 16.4961 1.29112 17.9868 2.40913 19.1048C3.52714 20.2228 5.01782 20.7197 6.63273 20.7197C8.24764 20.844 13.2166 20.844 14.8315 20.7197C16.4464 20.7197 17.9371 20.2228 19.0551 19.1048C20.1731 17.9868 20.67 16.4961 20.67 14.8812C20.67 13.1421 20.67 8.29737 20.5458 6.55824ZM18.434 16.6203C18.0613 17.4899 17.4402 18.2353 16.5706 18.4837C15.2042 18.9806 12.0986 18.8564 10.7321 18.8564C9.36565 18.8564 6.13584 18.9806 4.8936 18.4837C4.02403 18.111 3.27869 17.4899 3.03025 16.6203C2.40913 15.2539 2.53335 12.1483 2.53335 10.6576C2.53335 9.16693 2.40913 6.18557 2.90602 4.81911C3.27869 3.94954 3.89981 3.2042 4.76938 2.95575C6.13584 2.45886 9.24143 2.58308 10.6079 2.58308C11.9743 2.58308 15.2042 2.45886 16.4464 2.95575C17.4402 3.2042 18.0613 3.94954 18.434 4.81911C18.9309 6.18557 18.8066 9.29116 18.8066 10.6576C18.8066 12.0241 18.9309 15.2539 18.434 16.6203Z" fill="#0BA97D"/>
</svg>
