<svg width="16" height="17" viewBox="0 0 16 17" fill="none" xmlns="http://www.w3.org/2000/svg">
<path d="M14.0946 0.0605469H1.90718C1.40209 0.0605468 0.917658 0.261122 0.560399 0.618175C0.20314 0.975228 0.00229036 1.45953 0.0019989 1.96462V14.1543C0.00229036 14.6594 0.20314 15.1437 0.560399 15.5007C0.917658 15.8578 1.40209 16.0584 1.90718 16.0584H8.76385V10.4703H7.23795V8.56625H8.76165V7.42291C8.76165 5.89921 9.5235 4.75588 11.0472 4.75588C11.5837 4.70423 12.1216 4.83851 12.5709 5.13625V6.65996H11.8091C10.9933 6.65996 10.6657 6.85016 10.6657 7.42182V8.56514H12.5709L12.1894 10.4692H10.6657V16.0584H14.0946C14.5997 16.0584 15.0841 15.8578 15.4414 15.5007C15.7987 15.1437 15.9995 14.6594 15.9998 14.1543V1.96462C15.9995 1.45953 15.7987 0.975228 15.4414 0.618175C15.0841 0.261122 14.5997 0.0605468 14.0946 0.0605469Z" fill="white"/>
</svg>
