<svg width="13" height="14" viewBox="0 0 13 14" fill="none" xmlns="http://www.w3.org/2000/svg">
<path fill-rule="evenodd" clip-rule="evenodd" d="M10.0577 3.32225C8.09281 1.35742 4.90719 1.35742 2.94236 3.32225C0.977542 5.28708 0.977542 8.47269 2.94237 10.4375C4.90719 12.4024 8.09281 12.4024 10.0577 10.4375C12.0225 8.47269 12.0225 5.28708 10.0577 3.32225ZM2.01429 2.39418C4.49167 -0.0832153 8.5083 -0.0832153 10.9857 2.39418C13.4631 4.87156 13.4631 8.88818 10.9857 11.3656C8.5083 13.843 4.49168 13.843 2.0143 11.3656C-0.463096 8.88818 -0.463098 4.87156 2.01429 2.39418ZM6.5 6.22363C6.86243 6.22363 7.15625 6.51745 7.15625 6.87988V9.50488C7.15625 9.86731 6.86243 10.1611 6.5 10.1611C6.13757 10.1611 5.84375 9.86731 5.84375 9.50488V6.87988C5.84375 6.51745 6.13757 6.22363 6.5 6.22363ZM6.5 3.37988C6.01675 3.37988 5.625 3.77164 5.625 4.25488C5.625 4.73813 6.01675 5.12988 6.5 5.12988C6.98325 5.12988 7.375 4.73813 7.375 4.25488C7.375 3.77164 6.98325 3.37988 6.5 3.37988Z" fill="#666666"/>
</svg>
